<?xml version="1.0" encoding="UTF-8"?>
<svg width="1440px" height="1024px" viewBox="0 0 1440 1024" version="1.1" xmlns="http://www.w3.org/2000/svg" xmlns:xlink="http://www.w3.org/1999/xlink">
    <!-- Generator: Sketch 51.3 (57544) - http://www.bohemiancoding.com/sketch -->
    <title>Desktop HD</title>
    <desc>Created with Sketch.</desc>
    <defs>
        <polygon id="path-1" points="0.230240898 0.667483842 4.66195256 92.348277 84.0812573 85.6853933 92.8738613 9.8291946 17.1567676 0.667483842"></polygon>
        <polygon id="path-3" points="105.715519 0.57391762 100.904303 96.4439389 5.63533035 104.774571 0.377417268 3.42217431"></polygon>
        <polygon id="path-5" points="0 64 0 0 213 0 213 128 106.5 128 0 128"></polygon>
        <linearGradient x1="126.480661%" y1="12.005215%" x2="0%" y2="50%" id="linearGradient-7">
            <stop stop-color="#EEF8FF" offset="0%"></stop>
            <stop stop-color="#D8EFFF" offset="100%"></stop>
        </linearGradient>
        <polygon id="path-8" points="1.87822375e-19 9.7559141e-16 1.87822375e-19 5 63 5 63 9.7559141e-16"></polygon>
        <polygon id="path-10" points="1.10308379e-19 9.7559141e-16 1.10308379e-19 5 37 5 37 9.7559141e-16"></polygon>
        <polygon id="path-12" points="1.87822375e-19 9.7559141e-16 1.87822375e-19 5 63 5 63 9.7559141e-16"></polygon>
        <polygon id="path-14" points="1.10308379e-19 9.7559141e-16 1.10308379e-19 5 37 5 37 9.7559141e-16"></polygon>
        <polygon id="path-16" points="0.167583321 249.697633 2.02040021 0 62.1273065 21.9294114 38.9661119 227.35358"></polygon>
        <polygon id="path-18" points="1.60626809e-14 170.618995 1.60626809e-14 0.253190559 170 0.253190559 170 170.618995"></polygon>
        <polygon id="path-20" points="0 52 0 0 174 0 174 104 87 104 0 104"></polygon>
        <linearGradient x1="100%" y1="-17.0213569%" x2="30.6280132%" y2="100%" id="linearGradient-22">
            <stop stop-color="#EBF4FA" offset="0%"></stop>
            <stop stop-color="#D3E6F3" offset="100%"></stop>
        </linearGradient>
        <polygon id="path-23" points="1.31177531e-19 7.80473128e-16 1.31177531e-19 4 44 4 44 7.80473128e-16"></polygon>
        <polygon id="path-25" points="8.64579184e-20 7.80473128e-16 8.64579184e-20 4 29 4 29 7.80473128e-16"></polygon>
        <polygon id="path-27" points="1.07327071e-19 7.80473128e-16 1.07327071e-19 4 36 4 36 7.80473128e-16"></polygon>
        <polygon id="path-29" points="6.55887657e-20 7.80473128e-16 6.55887657e-20 4 22 4 22 7.80473128e-16"></polygon>
    </defs>
    <g id="Desktop-HD" stroke="none" stroke-width="1" fill="none" fill-rule="evenodd">
        <g id="Group-8" transform="translate(248.000000, 55.000000)">
            <g id="Page-1" transform="translate(91.000000, 268.000000)">
                <g transform="translate(574.000000, 166.000000)">
                    <g id="Group-3">
                        <mask id="mask-2" fill="white">
                            <use xlink:href="#path-1"></use>
                        </mask>
                        <g id="Clip-2"></g>
                        <path d="M30.3200591,62.5041672 C22.4178832,53.4024852 23.3686574,39.6057354 32.4435944,31.6774702 C41.5227198,23.7506052 55.2803243,24.6957799 63.1852925,33.7960617 C71.0916569,42.9005443 70.143675,56.7070959 61.0673419,64.6339609 C51.9924048,72.5594256 38.2278196,71.6100501 30.3200591,62.5041672 Z M65.6452055,27.3048 C69.7207216,24.3365838 71.3477803,21.6120669 70.5263818,19.1312494 C69.2942839,15.4100232 64.4148408,12.8518955 61.0599212,13.4561596 C58.8233081,13.8590023 57.1750645,16.6159124 56.1151906,21.7268899 C54.064784,21.0111034 51.9664512,20.5074404 49.8170666,20.2869573 C51.3555687,15.403058 51.07079,12.1915974 48.9627305,10.6525753 C45.8006412,8.34404217 40.3259085,9.16286033 37.9730512,11.6400472 C36.4044796,13.2915051 36.688911,16.5196849 38.8263454,21.3245865 C36.7832319,21.9337888 34.7901283,22.7446652 32.8928771,23.8314067 C31.2699538,18.9648992 29.1539092,16.5277419 26.5447432,16.5199348 C22.6309942,16.5082242 18.684562,20.3878801 18.2253851,23.7875191 C17.9192671,26.0539451 20.0360063,28.4911024 24.5756027,31.098991 C23.2336699,32.8377775 22.1709592,34.6935978 21.2874506,36.641373 C17.0892353,33.6727912 13.9417361,32.9462069 11.8449531,34.4616202 C8.69977857,36.7347402 7.75502919,42.2081431 9.37675532,45.2496202 C10.4579061,47.2772716 13.582484,47.9982828 18.7504892,47.4126539 C18.6713068,49.5746427 18.8869746,51.7324517 19.2933052,53.8798112 C14.2095174,53.9138211 11.2679618,55.1698435 10.4686385,57.6478787 C9.26965359,61.3649313 11.7753182,66.324453 14.7965801,67.8204067 C16.8107547,68.8177093 19.7141083,67.5787542 23.5066407,64.1035416 C24.1807327,65.1202719 24.8027311,66.1537213 25.6195597,67.0941708 C26.2780236,67.8528 27.0594286,68.4620022 27.7814468,69.1328562 C23.7235583,72.0337709 22.1124749,74.7251979 22.9481966,77.2071371 C24.2017792,80.9300459 29.1856616,83.4028825 32.4136154,82.8895416 C34.5655846,82.5473143 36.145759,79.9001233 37.1541388,74.9479685 C39.2847696,75.7369011 41.468536,76.2917663 43.7012705,76.5509124 C42.0781721,81.150411 42.3459335,84.1953773 44.5045548,85.6858112 C47.7424866,87.9214622 53.2269612,86.9208145 55.495276,84.6941596 C57.0074859,83.2097229 56.7431973,80.2034195 54.7024104,75.6752494 C56.8736743,75.0587326 59.0105564,74.233227 61.0297068,73.0722944 C62.3296474,77.6766361 64.2880219,79.9326698 66.9048302,79.8403955 C70.8300428,79.701984 74.6784733,75.7076676 75.2241884,72.5717663 C75.5879984,70.4811655 73.6289294,68.2261767 69.3469812,65.8068 C70.7722639,63.9551596 71.8797752,61.9499124 72.8007911,59.8652494 C76.6296702,62.8113233 79.5670583,63.4905368 81.6129553,61.9028899 C84.6818009,59.5214195 85.5618954,54.056307 84.082195,51.1107101 C83.095728,49.1469789 80.1218744,48.462889 75.1606341,49.0584404 C75.2158534,46.8076315 74.9626782,44.5672719 74.4750815,42.3467663 C79.3968966,42.4176585 82.2366959,41.2072652 82.9944793,38.7155865 C84.1311543,34.9780684 81.6835099,30.0331441 78.6769564,28.5305191 C76.6725874,27.5287691 73.7845147,28.7611062 70.0127382,32.2275303 C69.4574198,31.4229236 68.96253,30.5629348 68.3030242,29.8032607 C67.490363,28.8649011 66.5495515,28.1062719 65.6452055,27.3048 Z" id="Fill-1" fill="#A9C7DB" mask="url(#mask-2)"></path>
                    </g>
                    <path d="M39.6959165,39.3983305 C44.5380859,35.1795229 51.8795909,35.6818365 56.0894925,40.5218854 C60.3150443,45.3697585 59.8079781,52.7104211 54.9642437,56.9292286 C50.1205093,61.1417769 42.7821344,60.6394633 38.5597126,55.7900254 C34.348246,50.9531062 34.8553122,43.6140084 39.6959165,39.3983305 Z" id="Fill-4" fill="#020303"></path>
                </g>
                <g transform="translate(206.000000, 177.000000)">
                    <polygon id="Fill-1" fill="#D3E6F3" points="0 72 40 72 40 32 0 32"></polygon>
                    <g id="Group-4" transform="translate(20.000000, 0.000000)">
                        <path d="M18.350279,4.18275598 C17.9640225,2.38319026 19.0968155,0.608713529 20.8790162,0.21983399 C22.6600875,-0.167905141 24.4174413,0.974784885 24.8025684,2.7720698 C25.1876954,4.57163552 24.0549024,6.34497184 22.2738311,6.73385138 C22.0389149,6.7863102 21.8039987,6.8102588 21.5736002,6.8102588 C20.0534213,6.8102588 18.6845828,5.74283578 18.350279,4.18275598 M34.7142246,8.08523629 C33.0562584,7.3177409 32.3277923,5.34141174 33.0867523,3.66729102 C33.8445829,1.99431072 35.8041002,1.25988719 37.4620663,2.02282095 C39.1200325,2.79031634 39.8473692,4.76778591 39.0884092,6.44076621 C38.5338715,7.66670611 37.3378318,8.38858514 36.0853219,8.38858514 C35.627913,8.38858514 35.15921,8.29165036 34.7142246,8.08523629 M6.86310313,13.5158649 C5.48522932,12.3104524 5.3384067,10.2029762 6.53331694,8.81395777 C7.72709777,7.42379895 9.81084956,7.27440535 11.1887234,8.47981788 C12.5654678,9.68523041 12.7134198,11.7915662 11.5185096,13.1828654 C10.866843,13.9435184 9.94863694,14.3301171 9.02478385,14.3301171 C8.25904742,14.3301171 7.48766396,14.0621209 6.86310313,13.5158649 M43.8736972,16.6998874 L43.8725678,16.6998874 C42.9972791,15.0839276 43.585699,13.0585608 45.1838067,12.1770245 C46.7841733,11.292067 48.7888667,11.8862202 49.6641554,13.5010396 C50.5383147,15.1158591 49.9498948,17.1400854 48.3517871,18.0239025 C47.8480725,18.3021624 47.3070877,18.432169 46.7706204,18.432169 C45.6039453,18.432169 44.4722817,17.8072248 43.8736972,16.6998874 M3.20834932,27.935199 C1.39000765,27.8040519 0.0200396786,26.2109002 0.148791821,24.3759818 C0.275285155,22.5387826 1.85532242,21.1554662 3.67253468,21.2854729 C5.48974694,21.4143391 6.86084432,23.0097716 6.73209218,24.84469 C6.60898706,26.5997798 5.15996075,27.9431818 3.44439492,27.9431818 C3.36420718,27.9431818 3.28627825,27.940901 3.20834932,27.935199 M46.2883646,26.277044 C46.2883646,24.4375639 47.765626,22.9447683 49.5873559,22.9447683 C51.4113446,22.9447683 52.888606,24.4375639 52.888606,26.277044 C52.888606,28.1176644 51.4113446,29.6104601 49.5873559,29.6104601 C47.7644966,29.6104601 46.2883646,28.1176644 46.2883646,26.277044 M4.2699898,40.6918163 C3.28289004,39.144281 3.7256167,37.0824212 5.25821896,36.086844 C6.79082123,35.0901263 8.83278504,35.5360263 9.8198848,37.084702 C10.8058552,38.6310969 10.3631285,40.6940972 8.83165563,41.6908148 C8.2782473,42.0477629 7.65933349,42.2211051 7.04719611,42.2211051 C5.96296754,42.2211051 4.90019765,41.6828319 4.2699898,40.6918163 M43.0006673,42.9247376 C41.5426058,41.8208215 41.2455723,39.7327322 42.3399655,38.2581831 C43.4332293,36.7859148 45.5011694,36.4871276 46.9603604,37.5933245 C48.4195513,38.6961002 48.714326,40.7853299 47.6210622,42.2587386 C46.9727838,43.1311516 45.9811665,43.5907365 44.978255,43.5907365 C44.2904475,43.5907365 43.5947342,43.3729184 43.0006673,42.9247376 M17.2513681,51.2622693 L17.2513681,51.2634097 C15.5459669,50.6179381 14.6763253,48.6986294 15.314439,46.9743307 C15.9514233,45.2500319 17.8533409,44.3730573 19.5598715,45.0185289 C21.2675315,45.6605793 22.1360437,47.5810284 21.49793,49.3053271 C21.0032508,50.6453079 19.742835,51.4743854 18.4056198,51.4743854 C18.0227516,51.4743854 17.6319775,51.4048204 17.2513681,51.2622693 M29.8250313,49.6052547 C29.313411,47.83648 30.3174518,45.9855959 32.0657704,45.4689905 C33.8129596,44.9512447 35.6482423,45.9639281 36.1609921,47.7292816 C36.6737418,49.4957754 35.6719598,51.3466596 33.9213824,51.8655458 C33.6107961,51.9567785 33.2990804,52.000114 32.9918823,52.000114 C31.5643147,52.000114 30.2485581,51.058136 29.8250313,49.6052547" id="Fill-2" fill="#020303"></path>
                        <path d="M24.5918671,30.4557297 C22.195839,29.3465753 21.1430882,26.4904615 22.2399076,24.0710875 C23.3350949,21.6533616 26.1669128,20.5920014 28.5629409,21.6945635 C30.9589689,22.8037179 32.0100875,25.6614798 30.9132681,28.0792057 C30.1118718,29.8508862 28.383402,30.8941176 26.5733235,30.8941176 C25.912294,30.8941176 25.2349427,30.7540313 24.5918671,30.4557297" id="Path" fill="#F05C3E"></path>
                    </g>
                </g>
                <g transform="translate(646.000000, 421.000000)" id="Group-4">
                    <g>
                        <path d="M14.5417305,3.29794222 C14.2356405,1.87905386 15.1333255,0.479947206 16.5456355,0.173330646 C17.9570505,-0.132386746 19.3496705,0.76858039 19.6548655,2.18567042 C19.9600605,3.60455878 19.0623755,5.00276626 17.6509605,5.30938282 C17.4648005,5.35074458 17.2786405,5.36962713 17.0960605,5.36962713 C15.8913905,5.36962713 14.8066505,4.52800513 14.5417305,3.29794222 M27.5093855,6.37489785 C26.1955255,5.76975724 25.6182505,4.21149772 26.2196905,2.89151792 C26.8202355,1.5724373 28.3730605,0.99337259 29.6869205,1.59491652 C31.0007805,2.20005712 31.5771605,3.75921581 30.9757205,5.07829644 C30.5362755,6.0449029 29.5884705,6.61407675 28.5959155,6.61407675 C28.2334405,6.61407675 27.8620155,6.5376474 27.5093855,6.37489785 M5.4386855,10.6567397 C4.3467855,9.70631824 4.2304355,8.0446543 5.1773455,6.94946671 C6.1233605,5.85337994 7.7746355,5.73558883 8.8665355,6.68601025 C9.9575405,7.63643167 10.0747855,9.29719644 9.1278755,10.3941824 C8.6114605,10.993928 7.8838255,11.2987462 7.1517155,11.2987462 C6.5449055,11.2987462 5.9336205,11.0874415 5.4386855,10.6567397 M34.7678355,13.1672189 L34.7669405,13.1672189 C34.0733155,11.8930968 34.5396105,10.296173 35.8060355,9.60111549 C37.0742505,8.90336051 38.6628755,9.37182745 39.3565005,10.6450505 C40.0492305,11.9182735 39.5829355,13.5142981 38.3165105,14.2111539 C37.9173405,14.4305511 37.4886355,14.5330563 37.0635105,14.5330563 C36.1389755,14.5330563 35.2421855,14.0403118 34.7678355,13.1672189 M2.5424655,22.0258299 C1.1015155,21.9224255 0.0158805,20.6662867 0.1179105,19.2195241 C0.2181505,17.7709632 1.4702555,16.6802714 2.9103105,16.7827767 C4.3503655,16.8843828 5.4368955,18.1423199 5.3348655,19.5890825 C5.2373105,20.9729033 4.0890255,22.0321241 2.7295205,22.0321241 C2.6659755,22.0321241 2.6042205,22.0303258 2.5424655,22.0258299 M36.6813455,20.7184385 C36.6813455,19.2680792 37.8520055,18.0910673 39.2956405,18.0910673 C40.7410655,18.0910673 41.9117255,19.2680792 41.9117255,20.7184385 C41.9117255,22.169697 40.7410655,23.3467089 39.2956405,23.3467089 C37.8511105,23.3467089 36.6813455,22.169697 36.6813455,20.7184385 M3.3837655,32.0839321 C2.6015355,30.8637601 2.9523755,29.2380629 4.1668905,28.4530885 C5.3814055,27.667215 6.9995655,28.01879 7.7817955,29.2398612 C8.5631305,30.4591341 8.2122905,32.0857305 6.9986705,32.871604 C6.5601205,33.1530438 6.0696605,33.2897175 5.5845705,33.2897175 C4.7253705,33.2897175 3.8831755,32.8653098 3.3837655,32.0839321 M34.0760005,33.8445046 C32.9205555,32.9741092 32.6851705,31.3277312 33.5524255,30.1651059 C34.4187855,29.004279 36.0575305,28.7686968 37.2138705,29.6408905 C38.3702105,30.5103867 38.6038055,32.157664 37.7374455,33.31939 C37.2237155,34.0072542 36.4379055,34.3696192 35.6431455,34.3696192 C35.0980905,34.3696192 34.5467705,34.197878 34.0760005,33.8445046 M13.6708955,40.4183277 L13.6708955,40.4192269 C12.3194455,39.9102973 11.6302955,38.3969962 12.1359705,37.037453 C12.6407505,35.6779098 14.1479305,34.986449 15.5002755,35.4953785 C16.8535155,36.0016106 17.5417705,37.5158108 17.0360955,38.875354 C16.6440855,39.9318774 15.6452655,40.5855731 14.5855855,40.5855731 C14.2821805,40.5855731 13.9725105,40.5307238 13.6708955,40.4183277 M23.6349305,39.1118354 C23.2294955,37.7172246 24.0251505,36.2578737 25.4106105,35.8505502 C26.7951755,35.4423276 28.2495505,36.2407895 28.6558805,37.6327028 C29.0622105,39.0255152 28.2683455,40.4848662 26.8810955,40.893988 C26.6349705,40.9659215 26.3879505,41.0000899 26.1445105,41.0000899 C25.0132305,41.0000899 23.9705555,40.2573765 23.6349305,39.1118354" id="Fill-2" fill="#020303"></path>
                        <path d="M19.4878947,24.0131715 C17.5891554,23.1386459 16.7549001,20.88671 17.6240778,18.9791267 C18.491962,17.0728428 20.7360441,16.2360011 22.6347833,17.1053289 C24.5335226,17.9798545 25.3664844,20.2330899 24.4973068,22.1393737 C23.862238,23.5362757 22.4925072,24.3588235 21.0581054,24.3588235 C20.5342707,24.3588235 19.9975018,24.2483708 19.4878947,24.0131715" id="Path" fill="#F05C3E"></path>
                    </g>
                </g>
                <g transform="translate(91.000000, 415.000000)">
                    <g id="Group-3">
                        <mask id="mask-4" fill="white">
                            <use xlink:href="#path-3"></use>
                        </mask>
                        <g id="Clip-2"></g>
                        <path d="M68.5040783,65.9614667 C60.2804074,73.11255 47.796082,72.2543694 40.6287088,64.0416194 C33.457536,55.8301333 34.3263853,43.3820917 42.5538559,36.2297444 C50.7800599,29.0761333 63.2593191,29.9292583 70.4266923,38.1382167 C77.5978651,46.3560222 76.7378816,58.8078556 68.5040783,65.9614667 M78.5047107,25.8671194 C83.4582622,22.290685 85.4340711,18.9978331 84.4321371,15.9885639 C82.9292362,11.4746601 76.9906659,8.39876226 72.93065,9.12564722 C70.2239727,9.6102372 68.2219886,12.9426909 66.9246978,19.1230083 C64.4346721,18.2597722 61.8813191,17.6467861 59.2709717,17.3813694 C61.143745,11.4832913 60.7971341,7.60230978 58.231139,5.738425 C54.3821463,2.94259783 47.7662157,3.91143385 44.8830305,6.93027222 C42.960907,8.94283114 43.3041405,12.8448774 45.9127309,18.6364111 C43.434104,19.3732583 41.0150048,20.3527722 38.7086279,21.6710083 C36.7292591,15.7871742 34.156908,12.8402066 30.9915746,12.8301056 C26.2435746,12.814954 21.4440943,17.4971083 20.8858191,21.6141333 C20.5136357,24.3588167 23.0855646,27.3057843 28.6016059,30.4550361 C26.9753632,32.5568833 25.6771555,34.8002861 24.6018596,37.1536472 C19.52055,33.5539207 15.6972755,32.6763605 13.132036,34.5209667 C9.28417678,37.2878759 8.16953098,43.8952848 10.1328596,47.5579806 C11.4417453,49.9997777 15.2392667,50.8735462 21.5254239,50.1792861 C21.4253669,52.7917444 21.6875415,55.4004111 22.1814938,57.9926472 C16.0047152,58.0369328 12.4309498,59.5569698 11.4601978,62.5527583 C10.0040697,67.0464411 13.0489179,73.0387041 16.7201555,74.8466056 C19.1676473,76.0518732 22.6953948,74.5545862 27.3033982,70.3547444 C28.1241188,71.5819806 28.8739129,72.8332306 29.8694165,73.9707306 C30.6660728,74.8883139 31.6210471,75.6251611 32.4924294,76.4365778 C27.5645885,79.9436285 25.6086222,83.1972998 26.6245305,86.1975917 C28.148393,90.6980295 34.1999005,93.6882175 38.1234846,93.0668278 C40.7392072,92.652568 42.6601325,89.4515587 43.8862603,83.4638 C46.4750765,84.4193 49.1272199,85.0878972 51.8376243,85.4051333 C49.8785616,90.97166 50.2044856,94.6512618 52.8153963,96.4439389 C56.7317624,99.1329545 63.3704736,97.9793028 66.1698375,95.2457722 C68.0360801,93.4234185 67.7148001,89.789738 65.2059974,84.3447306 C67.8467419,83.5977722 70.4418908,82.6005639 72.8939202,81.1976472 C74.4815905,86.7628844 76.8618491,89.4899354 80.034696,89.3788 C84.7939663,89.212097 89.4784308,84.3949535 90.141718,80.5935083 C90.5839095,78.0592115 88.20154,75.3330032 82.9946096,72.4148833 C84.7323081,70.1765361 86.0761114,67.7536611 87.1894037,65.2309389 C91.8143131,68.815229 95.3851231,69.6363355 97.9018338,67.6942583 C101.6769,64.7811426 102.682997,58.168818 100.90481,54.6471333 C99.7193521,52.2993436 96.1050573,51.4727602 90.0619257,52.1673833 C90.1227199,49.4424389 89.8212824,46.7364528 89.2272732,44.0519528 C95.2089501,44.1360502 98.6602829,42.6724669 99.5812713,39.6612028 C100.962754,35.1443066 97.9872825,29.167115 94.3352456,27.350925 C91.9005543,26.1401317 88.3926493,27.6294141 83.8115305,31.8187722 C83.1326629,30.8493694 82.5297879,29.8053972 81.7305985,28.88655 C80.7439607,27.7541056 79.5990048,26.8377861 78.5047107,25.8671194 Z" id="Fill-1" fill="#A9C7DB" mask="url(#mask-4)"></path>
                    </g>
                    <path d="M51,51.0025536 C51,48.2395301 53.2337165,46 55.9974457,46 C58.7598978,46 61,48.2395301 61,51.0025536 C61,53.7617467 58.7598978,56 55.9974457,56 C53.2337165,56 51,53.7617467 51,51.0025536" id="Fill-4" stroke="#000000" stroke-width="5" fill="#020303"></path>
                </g>
                <text id="4" font-family="HiraKakuStd-W8, Hiragino Kaku Gothic Std" font-size="300" font-weight="600" letter-spacing="0.5675674" fill="#50E3C2">
                    <tspan x="22" y="411">4</tspan>
                </text>
                <rect id="Rectangle" fill="#D3E6F3" x="111" y="0" width="101" height="56"></rect>
                <text id="4" font-family="HiraKakuStd-W8, Hiragino Kaku Gothic Std" font-size="300" font-weight="600" letter-spacing="0.5675674" fill="#50E3C2">
                    <tspan x="438" y="484">4</tspan>
                </text>
                <g id="Group" transform="translate(0.000000, 220.000000)">
                    <g id="Page-1" transform="translate(29.000000, 30.000000)" fill="#F05C3E">
                        <path d="M15.1488798,17.4073351 C10.6825691,20.2885966 4.63581899,19.1303005 1.64349316,14.8222289 C-1.34542066,10.5128411 -0.143713528,4.67660839 4.32055,1.79666318 C8.78822553,-1.08854702 14.8404348,0.0684328015 17.8307135,4.37716253 C20.8216745,8.68589227 19.6186026,14.5208087 15.1488798,17.4073351" id="Fill-1"></path>
                    </g>
                    <path d="M61.8718914,23.548468 C61.1735422,22.5085686 60.3373697,21.6380319 59.5321909,20.7193882 C63.9756416,18.2929067 65.945395,15.7942048 65.4414513,13.2232825 C64.6855356,9.36689899 60.1428752,6.19967393 56.7196705,6.37101811 C54.4375341,6.48524756 52.4427218,9.01470273 50.7352338,13.9593836 C48.781307,12.9932921 46.7482471,12.2202871 44.6327569,11.7273563 C46.7996787,7.08251024 46.9216755,3.8542972 44.9987473,2.04271723 C42.114355,-0.674652718 36.586643,-0.544838761 33.9128667,1.6282073 C32.1303493,3.07690467 32.0032968,6.32159267 33.5317092,11.3622713 C31.4201757,11.7128584 29.329085,12.262463 27.2986628,13.1046628 C26.2935978,8.05880046 24.4902435,5.36591372 21.8886002,5.02600257 C17.9861351,4.51613583 13.55572,7.86917908 12.6663029,11.1929087 C12.0733581,13.4087285 13.8767124,16.1018349 18.0763656,19.2722279 C16.5161257,20.822851 15.2196626,22.5408595 14.0867411,24.3610129 C10.2926944,20.8690339 7.24651172,19.7469795 4.94819297,20.9948495 C1.50071484,22.8666546 -0.109031999,28.1941449 1.11551569,31.4037278 C1.93188082,33.5434497 4.95828027,34.6575962 10.194714,34.7461672 C9.83927476,36.8852757 9.78124386,39.0612881 9.91313227,41.2471855 C4.83223068,40.6402675 1.73724926,41.5147583 0.628188008,43.8706577 C-1.03540387,47.4045069 0.822346667,52.6572658 3.65766485,54.5352273 C5.54787697,55.7872016 8.6037315,54.9252318 12.8252284,51.9493179 C13.3606954,53.0458911 13.8519797,54.1503723 14.5457128,55.1915896 C15.1095357,56.0351074 15.8072254,56.7244197 16.4442465,57.4862217 C12.028343,59.8577334 10.0799115,62.330295 10.598952,64.9039066 C11.3775128,68.7643241 16.0332697,71.8586062 19.3227111,71.758807 C21.515672,71.6922743 23.4298125,69.2610098 25.0651326,64.4650138 C27.0909386,65.5220471 29.1938993,66.3484309 31.3885225,66.8888095 C29.186128,71.2574366 29.0661095,74.318923 31.0284672,76.0732689 C33.9720036,78.7047878 39.5413245,78.4405274 42.1248988,76.4871199 C43.8472816,75.1848482 43.9640028,72.162023 42.4750625,67.4186442 C44.7237599,67.081237 46.9579497,66.5336094 49.1182819,65.6386898 C49.8407862,70.3828384 51.5100538,72.8753897 54.1260849,73.1163435 C58.0501315,73.4777743 62.4032289,70.0092901 63.3490416,66.9494374 C63.9795834,64.9095355 62.311195,62.4167646 58.3438763,59.4711246 C60.0003948,57.8111079 61.3575266,55.9606406 62.5319929,54.0020977 C65.9539853,57.4319889 68.8010165,58.4804552 71.0730865,57.1474966 C74.4811915,55.1480586 75.9994438,49.8127874 74.9116988,46.7392773 C74.1865354,44.6902706 71.3041141,43.6306014 66.264435,43.5602695 C66.6093232,41.3229703 66.6403169,39.0678781 66.4332521,36.8035599 C71.333381,37.5060096 74.3215328,36.6616131 75.3977076,34.2703704 C77.0119697,30.6835064 75.1701716,25.4639808 72.376144,23.5985518 C70.5134589,22.3549325 67.4773877,23.2127287 63.2679302,26.1719402 C62.8102774,25.2967905 62.4357143,24.3893498 61.8718914,23.548468 Z" id="Stroke-3" stroke="#020303" stroke-width="4" stroke-linecap="round" stroke-linejoin="round"></path>
                </g>
            </g>
            <g id="Page-1" transform="translate(338.000000, 504.000000)">
                <path d="M206.2193,111.25 C206.2193,164.338 163.1823,207.375 110.0933,207.375 C57.0043,207.375 13.9683,164.338 13.9683,111.25 C13.9683,58.16 57.0043,15.124 110.0933,15.124 C163.1823,15.124 206.2193,58.16 206.2193,111.25" id="Fill-1" fill="#50E3C2"></path>
                <path d="M147,98.5002159 C147,121.419753 132.225346,140 113.999828,140 C95.7743107,140 81,121.419753 81,98.5002159 C81,75.5798149 95.7743107,57 113.999828,57 C132.225346,57 147,75.5798149 147,98.5002159" id="Fill-1" fill="#FFFFFF"></path>
                <path d="M85.669,42.333 C85.669,44.729 83.728,46.668 81.335,46.668 C78.94,46.668 77,44.729 77,42.333 C77,39.94 78.94,38 81.335,38 C83.728,38 85.669,39.94 85.669,42.333" id="Fill-3" fill="#3C3C3C"></path>
                <path d="M167.669,51.333 C167.669,53.729 165.729,55.668 163.334,55.668 C160.94,55.668 159,53.729 159,51.333 C159,48.94 160.94,47 163.334,47 C165.729,47 167.669,48.94 167.669,51.333" id="Fill-5" fill="#3C3C3C"></path>
                <path d="M89.8424002,160.014549 C90.1433809,167.792382 99.9284554,174.037966 111.963841,174.037966 C123.996665,174.037966 133.781739,167.792382 134.084001,160.014549" id="Stroke-11" stroke="#3C3C3C" stroke-width="5" stroke-linecap="round" stroke-linejoin="round" transform="translate(111.963201, 167.026257) rotate(-174.000000) translate(-111.963201, -167.026257) "></path>
                <path d="M203.7515,107.625 C203.7515,160.714 160.7145,203.752 107.6255,203.752 C54.5365,203.752 11.5005,160.714 11.5005,107.625 C11.5005,54.537 54.5365,11.5 107.6255,11.5 C160.7145,11.5 203.7515,54.537 203.7515,107.625 Z" id="Stroke-13" stroke="#000000" stroke-width="7" stroke-linecap="round" stroke-linejoin="round" transform="translate(107.626000, 107.626000) rotate(7.000000) translate(-107.626000, -107.626000) "></path>
                <path d="M148,103.999563 C148,127.195556 132.106054,146 112.499815,146 C92.8935766,146 77,127.195556 77,103.999563 C77,80.8040072 92.8935766,62 112.499815,62 C132.106054,62 148,80.8040072 148,103.999563 Z" id="Stroke-13" stroke="#000000" stroke-width="7" stroke-linecap="round" stroke-linejoin="round" transform="translate(112.500000, 104.000000) rotate(6.000000) translate(-112.500000, -104.000000) "></path>
            </g>
            <g id="Page-1" transform="translate(328.000000, 678.000000) scale(1, -1) translate(-328.000000, -678.000000) translate(302.000000, 637.000000)" stroke="#000000" stroke-linecap="round" stroke-linejoin="round" stroke-width="7">
                <path d="M8.31744292,0 C8.31744292,0 -28.2613318,74.2521925 52,82" id="Stroke-1"></path>
            </g>
            <ellipse id="Oval" fill="#000000" transform="translate(582.673035, 764.878544) rotate(30.000000) translate(-582.673035, -764.878544) " cx="582.673035" cy="764.878544" rx="14" ry="9.09735898"></ellipse>
            <ellipse id="Oval" fill="#000000" transform="translate(381.043713, 818.112344) rotate(155.000000) translate(-381.043713, -818.112344) " cx="381.043713" cy="818.112344" rx="14" ry="7.93956309"></ellipse>
            <g id="Page-1" transform="translate(552.762273, 723.963209) rotate(43.000000) translate(-552.762273, -723.963209) translate(491.262273, 704.963209)" stroke="#030303" stroke-linecap="round" stroke-linejoin="round" stroke-width="7">
                <path d="M88.4520049,24.3075714 C88.4520049,24.3075714 28.9695739,-32.5809196 0.39196977,29.2581637" id="Stroke-1"></path>
                <path d="M89.38592,23.4170685 C94.8801075,33.9170014 103.51435,37.4397397 111.85842,35.5418062 C116.783177,34.7860469 125.736702,30.0125037 119.245556,21.671218 C112.012148,12.3320817 99.5929196,21.472579 92.7843115,28.1114665" id="Stroke-3" transform="translate(105.454123, 26.859972) rotate(-4.000000) translate(-105.454123, -26.859972) "></path>
            </g>
            <g id="Page-1" transform="translate(365.000000, 708.000000)" stroke="#000000" stroke-linecap="round" stroke-linejoin="round" stroke-width="7">
                <path d="M28.4686595,94 C28.4686595,94 -19.2248114,24.2218444 43,0" id="Stroke-1"></path>
                <path d="M17.1237544,88 C24.9146804,94.2665223 26.5166247,103.288338 23.7170606,111.670732 C22.3646203,116.640701 17.1160773,125.459319 11.2456933,118.312892 C9.79599268,116.558296 9.1193453,114.604079 9.01455913,112.553719 C8.6437902,105.298848 15.4326301,96.8402699 20.4683891,91.761964" id="Stroke-3" transform="translate(17.000000, 104.500000) rotate(400.000000) translate(-17.000000, -104.500000) "></path>
            </g>
            <g id="Page-1" transform="translate(569.000000, 547.000000) scale(-1, 1) translate(-569.000000, -547.000000) translate(543.000000, 495.000000)" stroke="#000000" stroke-linecap="round" stroke-linejoin="round" stroke-width="7">
                <path d="M8.31744292,0 C8.31744292,0 -28.2613318,94.1735125 52,104" id="Stroke-1"></path>
            </g>
            <g id="Group-5" transform="translate(228.000000, 823.000000)">
                <path d="M447.966485,2 L1.03351494,2 C0.463654214,2 0,1.55248619 0,1.00110497 C0,0.448618785 0.463654214,0 1.03351494,0 L447.966485,0 C448.537488,0 449,0.448618785 449,1.00110497 C449,1.55248619 448.537488,2 447.966485,2" id="Fill-1" fill="#1D1C1A"></path>
                <path d="M447.966485,5 L1.03351494,5 C0.463654214,5 0,4.55248619 0,4.00110497 C0,3.44861878 0.463654214,3 1.03351494,3 L447.966485,3 C448.537488,3 449,3.44861878 449,4.00110497 C449,4.55248619 448.537488,5 447.966485,5 Z" id="Stroke-3" stroke="#010202" stroke-width="5"></path>
                <path d="M221.097354,50 L216.903645,50 C216.404393,50 216,49.5524862 216,49.001105 C216,48.4486188 216.404393,48 216.903645,48 L221.097354,48 C221.595607,48 222,48.4486188 222,49.001105 C222,49.5524862 221.595607,50 221.097354,50" id="Fill-5" fill="#1D1C1A"></path>
                <path d="M218.999447,52 C218.447761,52 218,51.5956739 218,51.0965058 L218,46.9034942 C218,46.4043261 218.447761,46 218.999447,46 C219.552239,46 220,46.4043261 220,46.9034942 L220,51.0965058 C220,51.5956739 219.552239,52 218.999447,52" id="Fill-7" fill="#1D1C1A"></path>
                <path d="M387.970957,15 L244.030181,15 C243.46102,15 243,14.5524862 243,14.001105 C243,13.4486188 243.46102,13 244.030181,13 L387.970957,13 C388.53898,13 389,13.4486188 389,14.001105 C389,14.5524862 388.53898,15 387.970957,15 Z" id="Stroke-14" stroke="#010202" stroke-width="4"></path>
                <path d="M421.986743,15 L395.015499,15 C394.455069,15 394,14.5524862 394,14.001105 C394,13.4486188 394.455069,13 395.015499,13 L421.986743,13 C422.546052,13 423,13.4486188 423,14.001105 C423,14.5524862 422.546052,15 421.986743,15 Z" id="Stroke-18" stroke="#010202" stroke-width="3"></path>
                <path d="M452.95191,15 L432.049249,15 C431.470713,15 431,14.5524862 431,14.001105 C431,13.4486188 431.470713,13 432.049249,13 L452.95191,13 C453.530447,13 454,13.4486188 454,14.001105 C454,14.5524862 453.530447,15 452.95191,15 Z" id="Stroke-22" stroke="#010202" stroke-width="3"></path>
                <path d="M467.023306,15 L461.977774,15 C461.437568,15 461,14.5524862 461,14.001105 C461,13.4486188 461.437568,13 461.977774,13 L467.023306,13 C467.563513,13 468,13.4486188 468,14.001105 C468,14.5524862 467.563513,15 467.023306,15 Z" id="Stroke-26" stroke="#010202" stroke-width="3"></path>
                <path d="M271.969495,24 L193.030505,24 C192.461165,24 192,23.5524862 192,23.001105 C192,22.4486188 192.461165,22 193.030505,22 L271.969495,22 C272.538835,22 273,22.4486188 273,23.001105 C273,23.5524862 272.538835,24 271.969495,24 Z" id="Stroke-30" stroke="#010202" stroke-width="3"></path>
                <path d="M89.9500581,23 L48.0499419,23 C47.4703833,23 47,22.5524862 47,22.001105 C47,21.4486188 47.4703833,21 48.0499419,21 L89.9500581,21 C90.5296167,21 91,21.4486188 91,22.001105 C91,22.5524862 90.5296167,23 89.9500581,23" id="Fill-32" stroke="#000000" stroke-width="3" fill="#1D1C1A"></path>
                <path d="M121.960487,23 L104.039513,23 C103.465196,23 103,22.5524862 103,22.001105 C103,21.4486188 103.465196,21 104.039513,21 L121.960487,21 C122.534804,21 123,21.4486188 123,22.001105 C123,22.5524862 122.534804,23 121.960487,23" id="Fill-34" stroke="#000000" stroke-width="3" fill="#1D1C1A"></path>
                <path d="M486.91826,15 L476.082935,15 C475.485289,15 475,14.5524862 475,14.001105 C475,13.4486188 475.485289,13 476.082935,13 L486.91826,13 C487.515907,13 488,13.4486188 488,14.001105 C488,14.5524862 487.515907,15 486.91826,15 Z" id="Stroke-38" stroke="#010202" stroke-width="3"></path>
                <path d="M71.9496977,15 L30.0514642,15 C29.4705447,15 29,14.5524862 29,14.001105 C29,13.4486188 29.4705447,13 30.0514642,13 L71.9496977,13 C72.5294553,13 73,13.4486188 73,14.001105 C73,14.5524862 72.5294553,15 71.9496977,15" id="Fill-40" stroke="#000000" stroke-width="3" fill="#1D1C1A"></path>
                <path d="M308.097354,30 L303.903645,30 C303.404393,30 303,29.5524862 303,29 C303,28.4486188 303.404393,28 303.903645,28 L308.097354,28 C308.595607,28 309,28.4486188 309,29 C309,29.5524862 308.595607,30 308.097354,30" id="Fill-54" fill="#1D1C1A"></path>
                <path d="M305.999447,32 C305.446656,32 305,31.5966722 305,31.0975042 L305,26.9044925 C305,26.4053245 305.446656,26 305.999447,26 C306.552239,26 307,26.4053245 307,26.9044925 L307,31.0975042 C307,31.5966722 306.552239,32 305.999447,32" id="Fill-58" fill="#1D1C1A"></path>
                <path d="M177.645806,52 L171.354194,52 C170.605193,52 170,51.3287293 170,50.5016575 C170,49.6729282 170.605193,49 171.354194,49 L177.645806,49 C178.394807,49 179,49.6729282 179,50.5016575 C179,51.3287293 178.394807,52 177.645806,52" id="Fill-62" fill="#1D1C1A"></path>
                <path d="M174.499171,55 C173.671642,55 173,54.3935108 173,53.6447587 L173,47.3552413 C173,46.6064892 173.671642,46 174.499171,46 C175.328358,46 176,46.6064892 176,47.3552413 L176,53.6447587 C176,54.3935108 175.328358,55 174.499171,55" id="Fill-64" fill="#1D1C1A"></path>
            </g>
            <g id="Page-1" transform="translate(669.000000, 0.643007)">
                <mask id="mask-6" fill="white">
                    <use xlink:href="#path-5"></use>
                </mask>
                <g id="Clip-2"></g>
                <path d="M183.227922,68.5485706 L180.34112,68.5485706 C180.909197,66.4100141 181.30265,64.2052485 181.30265,61.8901341 C181.30265,47.3307355 169.479141,35.5190179 154.888192,35.5190179 C151.316162,35.5190179 147.907702,36.2473189 144.802069,37.52957 C142.439136,16.4529811 124.735923,0 102.992072,0 C83.4785289,0 67.2142961,13.2661126 62.3425417,31.2043864 C58.2024346,30.0832442 53.9297026,29.2909411 49.4337187,29.2909411 C22.1395156,29.2909411 0,51.3893583 0,78.6432636 C0,105.899376 22.1395156,128 49.4337187,128 C49.5088728,128 49.568554,127.982344 49.6437081,127.982344 C49.7144414,127.982344 49.7697017,128 49.8426454,128 L183.227922,128 C199.666777,128 213,114.691955 213,98.2742853 C213,81.8522018 199.666777,68.5485706 183.227922,68.5485706" id="Fill-1" fill="url(#linearGradient-7)" mask="url(#mask-6)"></path>
            </g>
            <g id="Page-1" transform="translate(748.000000, 182.643007)">
                <mask id="mask-9" fill="white">
                    <use xlink:href="#path-8"></use>
                </mask>
                <g id="Clip-2"></g>
                <path d="M60.3715354,5 L2.62846458,5 C1.17795864,5 0,3.88181019 0,2.5 C0,1.11599297 1.17795864,0 2.62846458,0 L60.3715354,0 C61.8243511,0 63,1.11599297 63,2.5 C63,3.88181019 61.8243511,5 60.3715354,5" id="Fill-1" fill="#95C7EB" mask="url(#mask-9)"></path>
                <path d="M60.3715354,5 L2.62846458,5 C1.17795864,5 0,3.88181019 0,2.5 C0,1.11599297 1.17795864,0 2.62846458,0 L60.3715354,0 C61.8243511,0 63,1.11599297 63,2.5 C63,3.88181019 61.8243511,5 60.3715354,5" id="Fill-1" fill="#95C7EB" mask="url(#mask-9)"></path>
            </g>
            <g id="Page-1" transform="translate(748.000000, 193.643007)">
                <mask id="mask-11" fill="white">
                    <use xlink:href="#path-10"></use>
                </mask>
                <g id="Clip-2"></g>
                <path d="M35.4562986,5 L1.54370142,5 C0.691816982,5 0,3.88181019 0,2.5 C0,1.11599297 0.691816982,0 1.54370142,0 L35.4562986,0 C36.3095395,0 37,1.11599297 37,2.5 C37,3.88181019 36.3095395,5 35.4562986,5" id="Fill-1" fill="#95C7EB" mask="url(#mask-11)"></path>
                <path d="M35.4562986,5 L1.54370142,5 C0.691816982,5 0,3.88181019 0,2.5 C0,1.11599297 0.691816982,0 1.54370142,0 L35.4562986,0 C36.3095395,0 37,1.11599297 37,2.5 C37,3.88181019 36.3095395,5 35.4562986,5" id="Fill-1" fill="#95C7EB" mask="url(#mask-11)"></path>
            </g>
            <g id="Page-1" transform="translate(694.000000, 261.643007)">
                <mask id="mask-13" fill="white">
                    <use xlink:href="#path-12"></use>
                </mask>
                <g id="Clip-2"></g>
                <path d="M60.3715354,5 L2.62846458,5 C1.17795864,5 0,3.88181019 0,2.5 C0,1.11599297 1.17795864,0 2.62846458,0 L60.3715354,0 C61.8243511,0 63,1.11599297 63,2.5 C63,3.88181019 61.8243511,5 60.3715354,5" id="Fill-1" fill="#95C7EB" mask="url(#mask-13)"></path>
                <path d="M60.3715354,5 L2.62846458,5 C1.17795864,5 0,3.88181019 0,2.5 C0,1.11599297 1.17795864,0 2.62846458,0 L60.3715354,0 C61.8243511,0 63,1.11599297 63,2.5 C63,3.88181019 61.8243511,5 60.3715354,5" id="Fill-1" fill="#95C7EB" mask="url(#mask-13)"></path>
            </g>
            <g id="Page-1" transform="translate(693.000000, 272.643007)">
                <mask id="mask-15" fill="white">
                    <use xlink:href="#path-14"></use>
                </mask>
                <g id="Clip-2"></g>
                <path d="M35.4562986,5 L1.54370142,5 C0.691816982,5 0,3.88181019 0,2.5 C0,1.11599297 0.691816982,0 1.54370142,0 L35.4562986,0 C36.3095395,0 37,1.11599297 37,2.5 C37,3.88181019 36.3095395,5 35.4562986,5" id="Fill-1" fill="#95C7EB" mask="url(#mask-15)"></path>
                <path d="M35.4562986,5 L1.54370142,5 C0.691816982,5 0,3.88181019 0,2.5 C0,1.11599297 0.691816982,0 1.54370142,0 L35.4562986,0 C36.3095395,0 37,1.11599297 37,2.5 C37,3.88181019 36.3095395,5 35.4562986,5" id="Fill-1" fill="#95C7EB" mask="url(#mask-15)"></path>
            </g>
            <g id="Page-1" opacity="0.570595562" transform="translate(625.585405, 340.616100) rotate(18.000000) translate(-625.585405, -340.616100) translate(594.085405, 215.616100)">
                <mask id="mask-17" fill="white">
                    <use xlink:href="#path-16"></use>
                </mask>
                <g id="Clip-2"></g>
                <path d="M27.5048193,23.8261562 C28.3897546,23.7898896 29.2356999,24.8487271 30.1004311,24.7409636 C30.5348172,24.6860457 30.9940504,23.4862867 31.4102529,23.3971746 C31.8234247,23.3028815 32.2143722,23.1806114 32.5639014,23.0303642 L32.2093212,23.5961226 C32.7659414,22.437665 33.7912945,23.6230634 33.3235719,23.2458912 L33.4417653,23.394066 L33.5943055,23.5899054 L33.8852431,23.9846929 C34.0751608,24.2499569 34.2600274,24.5183294 34.4378226,24.7898106 C34.793413,25.333809 35.1287995,25.8912779 35.4449921,26.4601448 C36.075357,27.5989148 36.6228854,28.7874219 37.0744449,30.0184126 C37.978574,32.4752132 38.473572,35.1288893 38.367501,37.7981083 C38.3078992,39.1358264 38.1068694,40.4445312 37.7310749,41.7563445 C37.3502295,43.0588322 36.7107728,44.2784249 36.0228266,45.378856 C34.6236994,47.5983696 32.955859,49.5412211 31.3324675,51.4768194 C29.7201881,53.4103452 28.0513375,55.3117493 26.8300056,57.3903414 C26.2339875,58.4182394 25.7470711,59.5259238 25.7177753,60.554858 C25.7056529,60.8107963 25.7208059,61.0615537 25.7773771,61.2978044 C25.810377,61.4587589 25.840683,61.5820652 25.8682951,61.6677233 L26.0137639,62.1226097 C26.2006509,62.65521 26.4370378,63.2137151 26.7067612,63.7297365 C27.7735325,65.8176542 29.6009845,67.4154554 31.7779657,68.0475297 C33.9347429,68.6941107 36.3875088,68.4671857 38.342246,67.391623 C39.3130483,66.8579865 40.1404022,66.0901716 40.5960024,65.1783266 C41.0617047,64.2685539 41.0940311,63.2261493 40.7424815,62.2231198 C40.568727,61.7278222 40.3020342,61.2211265 39.9939232,60.7807469 C39.7211691,60.3963213 39.3554767,60.0730308 38.9513967,59.8927342 C38.1422264,59.510381 37.0855571,59.6305787 36.1016222,60.0802841 C34.1095076,61.0004186 32.4588406,62.8831713 31.2556923,64.9337863 C30.0414317,67.010306 29.2272105,69.3458727 28.755447,71.7498276 C27.8169711,76.5794975 28.2786326,81.6495629 29.6221987,86.4212063 C30.3212572,88.7920033 31.1556825,91.2695276 31.8486797,93.7232196 C32.5639014,96.1831287 33.2225519,98.6616891 33.8236209,101.158901 C35.0217183,106.151252 35.9864594,111.22339 36.4501412,116.381531 C36.9057415,121.525166 36.8855375,126.811795 35.6227873,131.944031 C34.4075166,137.110462 31.4334875,141.747401 27.6189719,145.280801 C25.6945407,147.041283 23.5135187,148.555153 21.016304,149.494975 C19.7707273,149.959187 18.4221101,150.266935 16.992677,150.188184 C15.5824376,150.126013 13.9994541,149.426587 13.1165392,148.105448 C12.6801327,147.448505 12.4285929,146.765657 12.2457467,146.015457 C12.0992677,145.344008 12.0376455,144.450814 12.3215117,143.649841 C12.5892147,142.826072 13.2246306,142.12561 13.9368217,141.753618 C14.6510331,141.372301 15.4107036,141.23138 16.1319865,141.226199 C17.5806134,141.222054 18.921149,141.679013 20.1081341,142.341137 C21.29916,143.006369 22.3406763,143.89749 23.2246014,144.912954 C24.9985128,146.953207 26.1127635,149.471143 26.7269652,152.043996 C27.3441975,154.624103 27.4815847,157.292286 27.3280343,159.881718 C27.0724536,164.977689 26.816873,170.074695 26.8158628,175.155122 C26.8289954,177.691709 26.897689,180.231405 27.2290346,182.713074 C27.5795741,185.160548 28.1927655,187.672267 29.8272693,189.374723 C30.0333501,189.59025 30.0303195,189.936337 29.8212081,190.147719 C29.6141171,190.355993 29.2807511,190.354956 29.07366,190.147719 C28.1129597,189.183028 27.4482481,187.962399 26.9946682,186.716902 C26.534017,185.466224 26.2703547,184.17617 26.0662943,182.889225 C25.6854489,180.313263 25.5793779,177.736265 25.5288679,175.167556 C25.4561335,170.032211 25.6399899,164.920698 25.8208157,159.81333 C25.9268867,157.308865 25.7804077,154.819943 25.1884304,152.438784 C24.6025144,150.070059 23.5660491,147.813243 21.9992287,146.043435 C20.4687755,144.296422 18.2948249,142.970102 16.1572415,142.980464 C15.1025926,142.98979 14.1974533,143.448821 13.9671277,144.233215 C13.8347915,144.646654 13.8408527,145.081853 13.9651073,145.648647 C14.0923925,146.13151 14.2873611,146.656858 14.5631457,147.054753 C15.1268374,147.855726 16.0410685,148.284708 17.1058194,148.342735 C18.1675397,148.392472 19.3040148,148.146895 20.3879595,147.727239 C22.5669612,146.886891 24.5833206,145.481821 26.3643034,143.845681 C29.9080853,140.537134 32.642697,136.261825 33.7619987,131.457023 C34.9318104,126.657403 34.9560553,121.568686 34.4964142,116.569081 C34.0317222,111.552898 33.0730423,106.571944 31.8799959,101.653162 C31.2829677,99.1922171 30.6172458,96.7478508 29.9161669,94.311774 C29.2282207,91.8570459 28.4392544,89.5028279 27.7048389,86.9848923 C26.3077322,81.9635277 25.8147545,76.5701718 26.842128,71.3550402 C27.3603607,68.7583543 28.2483266,66.2155502 29.6040151,63.9110693 C30.9677852,61.6376739 32.7629108,59.4886211 35.3419517,58.2845712 C36.6067222,57.7125957 38.2392056,57.4266079 39.7332915,58.1198174 C40.467707,58.4576145 41.0768577,59.0036853 41.5314477,59.6492301 C41.9436094,60.2471103 42.2759652,60.8750399 42.522454,61.5806836 C43.0265439,62.9733196 42.9841155,64.6964994 42.2658632,66.0559774 C41.5738761,67.424781 40.43235,68.408123 39.2150589,69.066102 C36.757242,70.3768792 33.8822125,70.5996595 31.2678147,69.8038675 C28.6362434,69.0236183 26.4016808,67.010306 25.1874202,64.5597226 C24.8752684,63.9473358 24.6186776,63.3308043 24.3913826,62.6593548 L24.2499545,62.2034323 L24.1145877,61.6449272 C24.0307411,61.262574 24.0105371,60.8636419 24.0297309,60.4864696 C24.1065061,58.9425502 24.7449526,57.6607863 25.4076439,56.514763 C26.7855568,54.2237524 28.4968358,52.3306379 30.1262885,50.3991844 C33.3488269,46.5746164 36.9158435,42.7749168 36.9400883,37.724539 C37.0704041,35.2853537 36.6521812,32.8150827 35.8339191,30.4857332 C35.4227677,29.3210585 34.919688,28.1864332 34.3368026,27.0953277 C34.0438446,26.5513293 33.7327029,26.0156204 33.4013573,25.4954542 C33.2366947,25.234335 33.0649607,24.9783967 32.890196,24.7266031 L32.6235032,24.3535756 L32.4871262,24.173279 L32.385096,24.0416832 C31.8941387,23.6334253 32.8942368,24.7887744 33.4266123,23.5992311 L33.0710219,24.1649895 C32.592187,24.3670461 32.1204236,24.4996781 31.6567417,24.5991521 C31.1940701,24.6913728 30.734429,24.7628697 30.2768084,24.8136429 C29.3615671,24.9141531 28.4513768,24.9711434 27.5442171,24.9960119 C25.7309079,25.0426403 23.9297211,25.0063737 22.1204527,24.9006826 C21.8264845,24.8830674 21.6022201,24.6250568 21.6183833,24.3245624 C21.6355567,24.0251042 21.8881067,23.7971429 22.1780341,23.8095772 C23.9499251,23.8883274 25.7369691,23.8976531 27.5048193,23.8261562 Z" id="Fill-1" stroke="#4D555A" stroke-width="3" fill="#000000" mask="url(#mask-17)"></path>
            </g>
            <g id="Page-1" transform="translate(679.158565, 175.831249) rotate(19.000000) translate(-679.158565, -175.831249) translate(594.158565, 84.331249)">
                <g id="Group-3" transform="translate(0.000000, 0.000000)">
                    <mask id="mask-19" fill="white">
                        <use xlink:href="#path-18"></use>
                    </mask>
                    <g id="Clip-2"></g>
                    <path d="M144.747816,76.4930362 C155.437668,136.978142 110.302737,161.3554 88.9230331,166.114259 C88.6617256,166.173745 88.4016058,166.233231 88.127233,166.280819 L88.0916001,166.280819 L78.0193839,167.149311 L77.9611836,167.149311 C54.5254646,166.935163 19.4639375,153.46759 11.6591578,114.956519 C2.48964021,69.7473527 24.0593862,29.035309 59.6209608,18.3754635 C81.3926261,11.8439287 134.319272,17.4831773 144.747816,76.4930362" id="Fill-1" fill="#4648CD" mask="url(#mask-19)" transform="translate(77.954837, 91.697969) rotate(8.000000) translate(-77.954837, -91.697969) "></path>
                </g>
                <path d="M87.433178,177.749632 C83.9033429,184.446643 75.583243,177.749632 75.583243,177.749632 C71.1149263,174.704984 78.3237625,165.95975 79.1843109,166.248466 C80.0448594,166.537181 81.6912739,166.336084 81.6912739,166.336084 C81.6912739,166.336084 83.8946015,166.069731 85.8474583,165.681178 C88.7397267,164.492241 87.433178,175.931204 87.433178,177.749632 Z" id="Fill-4" fill="#4648CD" transform="translate(80.930614, 173.160413) rotate(-16.000000) translate(-80.930614, -173.160413) "></path>
            </g>
            <g id="Page-1" transform="translate(439.000000, 73.643007)">
                <mask id="mask-21" fill="white">
                    <use xlink:href="#path-20"></use>
                </mask>
                <g id="Clip-2"></g>
                <path d="M149.679147,55.6957136 L147.320915,55.6957136 C147.784977,53.9581365 148.10639,52.1667644 148.10639,50.285734 C148.10639,38.4562226 138.447749,28.859202 126.528383,28.859202 C123.610386,28.859202 120.82601,29.4509466 118.289014,30.4927756 C116.358731,13.3680472 101.896951,0 84.1343683,0 C68.1937278,0 54.9074531,10.7787165 50.9277101,25.3535639 C47.5456508,24.442636 44.05525,23.7988896 40.3824744,23.7988896 C18.0858015,23.7988896 0,41.7538536 0,63.8976516 C0,86.0432429 18.0858015,104 40.3824744,104 C40.4438679,104 40.4926216,103.985655 40.5540151,103.985655 C40.6117972,103.985655 40.6569395,104 40.7165273,104 L149.679147,104 C163.108072,104 174,93.1872134 174,79.8478568 C174,66.504914 163.108072,55.6957136 149.679147,55.6957136" id="Fill-1" fill="url(#linearGradient-22)" mask="url(#mask-21)"></path>
            </g>
            <g id="Page-1" transform="translate(585.000000, 198.643007)">
                <mask id="mask-24" fill="white">
                    <use xlink:href="#path-23"></use>
                </mask>
                <g id="Clip-2"></g>
                <path d="M42.164247,4 L1.83575304,4 C0.822701276,4 0,3.10544815 0,2 C0,0.892794376 0.822701276,0 1.83575304,0 L42.164247,0 C43.1789119,0 44,0.892794376 44,2 C44,3.10544815 43.1789119,4 42.164247,4" id="Fill-1" fill="#95C7EB" mask="url(#mask-24)"></path>
                <path d="M42.164247,4 L1.83575304,4 C0.822701276,4 0,3.10544815 0,2 C0,0.892794376 0.822701276,0 1.83575304,0 L42.164247,0 C43.1789119,0 44,0.892794376 44,2 C44,3.10544815 43.1789119,4 42.164247,4" id="Fill-1" fill="#95C7EB" mask="url(#mask-24)"></path>
            </g>
            <g id="Page-1" transform="translate(603.000000, 198.643007)">
                <mask id="mask-26" fill="white">
                    <use xlink:href="#path-25"></use>
                </mask>
                <g id="Clip-2"></g>
                <path d="M27.7900719,4 L1.20992814,4 C0.542234932,4 0,3.10544815 0,2 C0,0.892794376 0.542234932,0 1.20992814,0 L27.7900719,0 C28.4588283,0 29,0.892794376 29,2 C29,3.10544815 28.4588283,4 27.7900719,4" id="Fill-1" fill="#95C7EB" mask="url(#mask-26)"></path>
                <path d="M27.7900719,4 L1.20992814,4 C0.542234932,4 0,3.10544815 0,2 C0,0.892794376 0.542234932,0 1.20992814,0 L27.7900719,0 C28.4588283,0 29,0.892794376 29,2 C29,3.10544815 28.4588283,4 27.7900719,4" id="Fill-1" fill="#FFFFFF" mask="url(#mask-26)"></path>
            </g>
            <g id="Page-1" transform="translate(589.000000, 208.643007)">
                <mask id="mask-28" fill="white">
                    <use xlink:href="#path-27"></use>
                </mask>
                <g id="Clip-2"></g>
                <path d="M34.4980202,4 L1.50197976,4 C0.673119226,4 0,3.10544815 0,2 C0,0.892794376 0.673119226,0 1.50197976,0 L34.4980202,0 C35.3282006,0 36,0.892794376 36,2 C36,3.10544815 35.3282006,4 34.4980202,4" id="Fill-1" fill="#95C7EB" mask="url(#mask-28)"></path>
                <path d="M34.4980202,4 L1.50197976,4 C0.673119226,4 0,3.10544815 0,2 C0,0.892794376 0.673119226,0 1.50197976,0 L34.4980202,0 C35.3282006,0 36,0.892794376 36,2 C36,3.10544815 35.3282006,4 34.4980202,4" id="Fill-1" fill="#95C7EB" mask="url(#mask-28)"></path>
            </g>
            <g id="Page-1" transform="translate(607.000000, 208.643007)">
                <mask id="mask-30" fill="white">
                    <use xlink:href="#path-29"></use>
                </mask>
                <g id="Clip-2"></g>
                <path d="M21.0821235,4 L0.917876521,4 C0.411350638,4 0,3.10544815 0,2 C0,0.892794376 0.411350638,0 0.917876521,0 L21.0821235,0 C21.5894559,0 22,0.892794376 22,2 C22,3.10544815 21.5894559,4 21.0821235,4" id="Fill-1" fill="#95C7EB" mask="url(#mask-30)"></path>
                <path d="M21.0821235,4 L0.917876521,4 C0.411350638,4 0,3.10544815 0,2 C0,0.892794376 0.411350638,0 0.917876521,0 L21.0821235,0 C21.5894559,0 22,0.892794376 22,2 C22,3.10544815 21.5894559,4 21.0821235,4" id="Fill-1" fill="#FFFFFF" mask="url(#mask-30)"></path>
            </g>
            <g id="Group-5" transform="translate(679.000000, 198.643007) scale(1, -1) translate(-679.000000, -198.643007) translate(432.000000, 118.643007)">
                <path d="M186.903645,131 C186.404393,131 186,130.552486 186,130.001105 C186,129.448619 186.404393,129 186.903645,129 L191.097354,129 C191.595607,129 192,129.448619 192,130.001105 C192,130.552486 191.595607,131 191.097354,131 L186.903645,131 Z" id="Fill-5" fill="#FFFFFF"></path>
                <path d="M188.999447,133 C188.447761,133 188,132.595674 188,132.096506 L188,127.903494 C188,127.404326 188.447761,127 188.999447,127 C189.552239,127 190,127.404326 190,127.903494 L190,132.096506 C190,132.595674 189.552239,133 188.999447,133" id="Fill-7" fill="#FFFFFF"></path>
                <path d="M287.345149,142 L279.656682,142 C278.741388,142 278,141.328729 278,140.5 C278,139.672928 278.741388,139 279.656682,139 L287.345149,139 C288.258612,139 289,139.672928 289,140.5 C289,141.328729 288.258612,142 287.345149,142" id="Fill-50" fill="#FFFFFF"></path>
                <path d="M283.499171,146 C282.669983,146 282,145.260566 282,144.345424 L282,136.658236 C282,135.743095 282.669983,135 283.499171,135 C284.328358,135 285,135.743095 285,136.658236 L285,144.345424 C285,145.260566 284.328358,146 283.499171,146" id="Fill-52" fill="#FFFFFF"></path>
                <g id="Group-6" transform="translate(293.000000, 127.000000)" fill="#FFFFFF">
                    <path d="M5.09735397,4 L0.903644533,4 C0.40439341,4 0,3.55248619 0,3 C0,2.44861878 0.40439341,2 0.903644533,2 L5.09735397,2 C5.59560659,2 6,2.44861878 6,3 C6,3.55248619 5.59560659,4 5.09735397,4" id="Fill-54"></path>
                    <path d="M2.99944721,6 C2.44665561,6 2,5.59667221 2,5.09750416 L2,0.904492512 C2,0.405324459 2.44665561,0 2.99944721,0 C3.55223881,0 4,0.405324459 4,0.904492512 L4,5.09750416 C4,5.59667221 3.55223881,6 2.99944721,6" id="Fill-58"></path>
                </g>
                <g id="Group-7" transform="translate(19.000000, 0.000000)" fill="#1D1C1A">
                    <path d="M12.7430093,10 L2.25699068,10 C1.00865513,10 0,8.88121547 0,7.50276243 C0,6.12154696 1.00865513,5 2.25699068,5 L12.7430093,5 C13.9913449,5 15,6.12154696 15,7.50276243 C15,8.88121547 13.9913449,10 12.7430093,10" id="Fill-62"></path>
                    <path d="M7.49861802,15 C6.11940299,15 5,13.9891847 5,12.7412646 L5,2.25873544 C5,1.01081531 6.11940299,0 7.49861802,0 C8.88059701,0 10,1.01081531 10,2.25873544 L10,12.7412646 C10,13.9891847 8.88059701,15 7.49861802,15" id="Fill-64"></path>
                </g>
                <g id="Group-7" transform="translate(432.000000, 128.000000)" fill="#1D1C1A">
                    <path d="M10.1944075,8 L1.80559254,8 C0.806924101,8 0,7.10497238 0,6.00220994 C0,4.89723757 0.806924101,4 1.80559254,4 L10.1944075,4 C11.1930759,4 12,4.89723757 12,6.00220994 C12,7.10497238 11.1930759,8 10.1944075,8" id="Fill-62"></path>
                    <path d="M5.99889442,12 C4.89552239,12 4,11.1913478 4,10.1930116 L4,1.80698835 C4,0.808652246 4.89552239,0 5.99889442,0 C7.10447761,0 8,0.808652246 8,1.80698835 L8,10.1930116 C8,11.1913478 7.10447761,12 5.99889442,12" id="Fill-64"></path>
                </g>
                <path d="M8,81.5 C8,83.4337709 6.43353722,85 4.49947785,85 C2.56750709,85 1,83.4337709 1,81.5 C1,79.5672733 2.56750709,78 4.49947785,78 C6.43353722,78 8,79.5672733 8,81.5" id="Fill-66" fill="#EBEBEB"></path>
                <g id="Group-4" transform="translate(479.000000, 145.000000)">
                    <path d="M12,6.5 C12,9.53878282 9.537142,12 6.49835919,12 C3.462858,12 1,9.53878282 1,6.5 C1,3.462858 3.462858,1 6.49835919,1 C9.537142,1 12,3.462858 12,6.5" id="Fill-42" fill="#EBEBEB"></path>
                    <path d="M7.50088101,3.18923999 C5.1221661,3.18923999 3.18923999,5.12392811 3.18923999,7.49911899 C3.18923999,9.8778339 5.1221661,11.812522 7.50088101,11.812522 C9.8778339,11.812522 11.81076,9.8778339 11.81076,7.49911899 C11.81076,5.12392811 9.8778339,3.18923999 7.50088101,3.18923999 M7.50088101,15 C3.36367908,15 0,11.6345589 0,7.49911899 C0,3.36544109 3.36367908,0 7.50088101,0 C11.6363209,0 15,3.36544109 15,7.49911899 C15,11.6345589 11.6363209,15 7.50088101,15" id="Fill-44" fill="#1D1C1A"></path>
                </g>
                <g id="Group-2" transform="translate(367.000000, 37.000000)">
                    <path d="M16,10 C16,13.8654535 13.0889154,17 9.49903028,17 C5.91108459,17 3,13.8654535 3,10 C3,6.13245823 5.91108459,3 9.49903028,3 C13.0889154,3 16,6.13245823 16,10" id="Fill-46" fill="#EBEBEB"></path>
                    <path d="M9.49887595,4 C6.46392806,4 4,6.46966292 4,9.4988764 C4,12.5325843 6.46392806,15 9.49887595,15 C12.5315757,15 15,12.5325843 15,9.4988764 C15,6.46966292 12.5315757,4 9.49887595,4 M9.5,19 C4.26239136,19 0,14.7376086 0,9.5 C0,4.26462297 4.26239136,0 9.5,0 C14.7376086,0 19,4.26462297 19,9.5 C19,14.7376086 14.7376086,19 9.5,19" id="Fill-48" fill="#1D1C1A"></path>
                </g>
                <path d="M4.99941266,79.12616 C3.4147774,79.12616 2.12615999,80.4159521 2.12615999,81.9994127 C2.12615999,83.5852226 3.4147774,84.8750147 4.99941266,84.8750147 C6.5852226,84.8750147 7.87384001,83.5852226 7.87384001,81.9994127 C7.87384001,80.4159521 6.5852226,79.12616 4.99941266,79.12616 M4.99941266,87 C2.24245272,87 0,84.7575473 0,81.9994127 C0,79.2436274 2.24245272,77 4.99941266,77 C7.75637261,77 10,79.2436274 10,81.9994127 C10,84.7575473 7.75637261,87 4.99941266,87" id="Fill-68" fill="#1D1C1A"></path>
            </g>
            <g id="Group-5" transform="translate(207.500000, 202.143007) scale(1, -1) translate(-207.500000, -202.143007) translate(0.000000, 77.643007)">
                <path d="M280.097354,159 L275.903645,159 C275.404393,159 275,158.552486 275,158.001105 C275,157.448619 275.404393,157 275.903645,157 L280.097354,157 C280.595607,157 281,157.448619 281,158.001105 C281,158.552486 280.595607,159 280.097354,159" id="Fill-5" fill="#FFFFFF"></path>
                <path d="M277.999447,161 C277.447761,161 277,160.595674 277,160.096506 L277,155.903494 C277,155.404326 277.447761,155 277.999447,155 C278.552239,155 279,155.404326 279,155.903494 L279,160.096506 C279,160.595674 278.552239,161 277.999447,161" id="Fill-7" fill="#FFFFFF"></path>
                <path d="M366.345149,188 L358.656682,188 C357.741388,188 357,187.328729 357,186.5 C357,185.672928 357.741388,185 358.656682,185 L366.345149,185 C367.258612,185 368,185.672928 368,186.5 C368,187.328729 367.258612,188 366.345149,188" id="Fill-50" fill="#FFFFFF"></path>
                <path d="M362.499171,192 C361.669983,192 361,191.260566 361,190.345424 L361,182.658236 C361,181.743095 361.669983,181 362.499171,181 C363.328358,181 364,181.743095 364,182.658236 L364,190.345424 C364,191.260566 363.328358,192 362.499171,192" id="Fill-52" fill="#FFFFFF"></path>
                <g id="Group-6" transform="translate(321.000000, 118.000000)" fill="#FFFFFF">
                    <path d="M7.64603095,6 L1.3554668,6 C0.606590115,6 0,5.32872928 0,4.5 C0,3.67292818 0.606590115,3 1.3554668,3 L7.64603095,3 C8.39340989,3 9,3.67292818 9,4.5 C9,5.32872928 8.39340989,6 7.64603095,6" id="Fill-54"></path>
                    <path d="M4.49917081,9 C3.66998342,9 3,8.39500832 3,7.64625624 L3,1.35673877 C3,0.607986689 3.66998342,0 4.49917081,0 C5.32835821,0 6,0.607986689 6,1.35673877 L6,7.64625624 C6,8.39500832 5.32835821,9 4.49917081,9" id="Fill-58"></path>
                </g>
                <g id="Group-7" transform="translate(259.000000, 73.000000)" fill="#1D1C1A">
                    <path d="M12.7430093,10 L2.25699068,10 C1.00865513,10 0,8.88121547 0,7.50276243 C0,6.12154696 1.00865513,5 2.25699068,5 L12.7430093,5 C13.9913449,5 15,6.12154696 15,7.50276243 C15,8.88121547 13.9913449,10 12.7430093,10" id="Fill-62"></path>
                    <path d="M7.49861802,15 C6.11940299,15 5,13.9891847 5,12.7412646 L5,2.25873544 C5,1.01081531 6.11940299,0 7.49861802,0 C8.88059701,0 10,1.01081531 10,2.25873544 L10,12.7412646 C10,13.9891847 8.88059701,15 7.49861802,15" id="Fill-64"></path>
                </g>
                <g id="Group-7" fill="#1D1C1A">
                    <path d="M10.1944075,8 L1.80559254,8 C0.806924101,8 0,7.10497238 0,6.00220994 C0,4.89723757 0.806924101,4 1.80559254,4 L10.1944075,4 C11.1930759,4 12,4.89723757 12,6.00220994 C12,7.10497238 11.1930759,8 10.1944075,8" id="Fill-62"></path>
                    <path d="M5.99889442,12 C4.89552239,12 4,11.1913478 4,10.1930116 L4,1.80698835 C4,0.808652246 4.89552239,0 5.99889442,0 C7.10447761,0 8,0.808652246 8,1.80698835 L8,10.1930116 C8,11.1913478 7.10447761,12 5.99889442,12" id="Fill-64"></path>
                </g>
                <g id="Group-4" transform="translate(400.000000, 234.000000)">
                    <path d="M12,6.5 C12,9.53878282 9.537142,12 6.49835919,12 C3.462858,12 1,9.53878282 1,6.5 C1,3.462858 3.462858,1 6.49835919,1 C9.537142,1 12,3.462858 12,6.5" id="Fill-42" fill="#EBEBEB"></path>
                    <path d="M7.50088101,3.18923999 C5.1221661,3.18923999 3.18923999,5.12392811 3.18923999,7.49911899 C3.18923999,9.8778339 5.1221661,11.812522 7.50088101,11.812522 C9.8778339,11.812522 11.81076,9.8778339 11.81076,7.49911899 C11.81076,5.12392811 9.8778339,3.18923999 7.50088101,3.18923999 M7.50088101,15 C3.36367908,15 0,11.6345589 0,7.49911899 C0,3.36544109 3.36367908,0 7.50088101,0 C11.6363209,0 15,3.36544109 15,7.49911899 C15,11.6345589 11.6363209,15 7.50088101,15" id="Fill-44" fill="#1D1C1A"></path>
                </g>
                <path d="M334.999387,179 C333.345187,179 332,180.346138 332,181.998774 C332,183.653862 333.345187,185 334.999387,185 C336.654813,185 338,183.653862 338,181.998774 C338,180.346138 336.654813,179 334.999387,179 M334.999413,187 C332.242453,187 330,184.757547 330,181.999413 C330,179.243627 332.242453,177 334.999413,177 C337.756373,177 340,179.243627 340,181.999413 C340,184.757547 337.756373,187 334.999413,187" id="Fill-68" fill="#1D1C1A"></path>
            </g>
            <text id="Oops!-Page-not-found" font-family="Avenir-Heavy, Avenir" font-size="64" font-weight="600" line-spacing="54" letter-spacing="0.1210811">
                <tspan x="40" y="279" fill="#1D1C1A">Oops! </tspan>
                <tspan x="40" y="333" fill="#1D1C1A">Page </tspan>
                <tspan x="210.077405" y="333" fill="#4648CD">not</tspan>
                <tspan x="311.112649" y="333" fill="#1D1C1A"> </tspan>
                <tspan x="40" y="387" fill="#1D1C1A">found.</tspan>
                <tspan x="263.830487" y="412.064453" font-family="Roboto-Regular, Roboto" font-weight="normal" fill="#1D1C1A"></tspan>
            </text>
            <path d="M644.510522,243.545221 C639.510522,241.364397 648.297158,246.38597 651.010522,247.045221 C653.723885,247.704472 655.841476,247.852529 658.510522,248.045221 C660.289885,248.173682 662.289885,247.840349 664.510522,247.045221 C654.510522,246.16577 647.843855,244.999103 644.510522,243.545221 Z" id="Path-2" fill="#FFFFFF"></path>
        </g>
    </g>
</svg>